<svg xmlns="http://www.w3.org/2000/svg" width="360" height="200" viewBox="0 0 360 200"><defs><style>.a{fill:#fff;}.b,.d{fill:#c74440;}.b{opacity:0.2;}.c,.e{fill:none;}.c{stroke:#c74440;stroke-miterlimit:10;}.e{stroke:#333;}.f{fill:#333;}</style></defs><rect class="a" width="360" height="200"/><path class="b" d="M136.516,101.113a60.041,60.041,0,0,1,44.624,35.682l-55.251,23.373Z"/><path class="c" d="M181.14,136.795a60.01,60.01,0,0,0-38.746-34.311"/><path class="d" d="M136.516,101.113a30.269,30.269,0,0,0,9.425-2.618l-2.788,4.219.557,5.026A30.2,30.2,0,0,0,136.516,101.113Z"/><path class="d" d="M179.582,87.032c.014,0,.067,0,.16-.009s.173-.011.24-.011a2.181,2.181,0,0,1,1.68.98,5.779,5.779,0,0,1,.78,3.221,7.18,7.18,0,0,1-.04.859,14.611,14.611,0,0,1-1.38,4.98,11.21,11.21,0,0,1-1.589,2.48,6,6,0,0,1-1.79,1.5,2.7,2.7,0,0,1-1.081.281h-.139a1.918,1.918,0,0,1-1.461-.62,5.088,5.088,0,0,1-1.06-3.58,10.847,10.847,0,0,1,.2-2.02,13.14,13.14,0,0,1,3.019-6.541A4.286,4.286,0,0,1,179.582,87.032Zm.32,7.94.1-.339h-3.9l-.021.14a16.958,16.958,0,0,0-.62,3.7,2.8,2.8,0,0,0,.48,1.881.753.753,0,0,0,.58.24q.8,0,1.68-1.3A14.378,14.378,0,0,0,179.9,94.972Zm.96-5.179q0-2.042-1.059-2.04a1.882,1.882,0,0,0-1.361.86,10.781,10.781,0,0,0-1.7,3.6,8.9,8.9,0,0,0-.4,1.48c.652.013,1.3.02,1.939.02l1.941-.02a7.1,7.1,0,0,0,.359-1.56A13.058,13.058,0,0,0,180.862,89.793Z"/><polyline class="e" points="151.44 18.178 125.889 160.168 286.352 92.285"/><path class="f" d="M152.509,12.238a30.239,30.239,0,0,1-6.194,7.57l4.985-.851,4.375,2.535A30.2,30.2,0,0,1,152.509,12.238Z"/><path class="f" d="M291.91,89.934a30.226,30.226,0,0,0-6.019,7.71l-.269-5.05-3.436-3.709A30.186,30.186,0,0,0,291.91,89.934Z"/><circle class="f" cx="125.889" cy="160.168" r="3"/><path class="f" d="M214.72,161.584a3,3,0,0,1-2.031-.65,2.39,2.39,0,0,1-.75-1.91,5.617,5.617,0,0,1,.04-.68,19.157,19.157,0,0,1,.941-2.94l.319-.96a2.155,2.155,0,0,0,.12-.68q0-.5-.38-.5a1.029,1.029,0,0,0-.32.06q-1.02.36-1.539,2.3a.278.278,0,0,1-.02.07.245.245,0,0,1-.031.06l-.029.03a.1.1,0,0,1-.07.02h-.531q-.12-.12-.12-.18a1.854,1.854,0,0,1,.061-.3,4.56,4.56,0,0,1,1.479-2.36,1.968,1.968,0,0,1,1.241-.42,1.869,1.869,0,0,1,1.28.44,1.472,1.472,0,0,1,.5,1.16,1.724,1.724,0,0,1-.061.52,4.134,4.134,0,0,1-.3.88,14.551,14.551,0,0,0-.98,3.56,3.18,3.18,0,0,0,.1.88,1.17,1.17,0,0,0,1.259.86,1.534,1.534,0,0,0,.96-.32q1.242-.82,2.061-3.78a3.525,3.525,0,0,0,.16-.92,2.09,2.09,0,0,0-.78-1.58.719.719,0,0,1-.26-.54,1.267,1.267,0,0,1,1.2-1.2.811.811,0,0,1,.74.45,2.107,2.107,0,0,1,.26,1.07,10.932,10.932,0,0,1-.4,2.3,12.553,12.553,0,0,1-.96,2.68Q216.62,161.584,214.72,161.584Z"/><path class="f" d="M225.72,154.424a.434.434,0,0,1,.279-.4h12.74a.437.437,0,0,1,.3.4.454.454,0,0,1-.279.38l-6.361.02h-6.36A.4.4,0,0,1,225.72,154.424Zm0,3.88a.4.4,0,0,1,.319-.4H238.76a.709.709,0,0,0,.09.07.963.963,0,0,1,.1.08.334.334,0,0,1,.061.1.4.4,0,0,1,.029.15.437.437,0,0,1-.3.4H226A.434.434,0,0,1,225.72,158.3Z"/><path class="f" d="M250.539,186.344v-59.98h6.16v1.46H252v57.06h4.7v1.46Z"/><path class="f" d="M286.919,127.824v-1.46h6.16v59.98h-6.16v-1.46h4.7v-57.06Z"/><path class="f" d="M268.7,145.992a3,3,0,0,1-2.03-.65,2.39,2.39,0,0,1-.75-1.91,5.432,5.432,0,0,1,.04-.68,18.981,18.981,0,0,1,.939-2.94l.321-.96a2.155,2.155,0,0,0,.12-.68q0-.5-.38-.5a1.024,1.024,0,0,0-.32.06q-1.02.36-1.54,2.3a.232.232,0,0,1-.02.07.256.256,0,0,1-.03.06l-.031.03a.09.09,0,0,1-.069.02h-.53q-.12-.12-.12-.18a1.8,1.8,0,0,1,.06-.3,4.568,4.568,0,0,1,1.48-2.36,1.964,1.964,0,0,1,1.24-.42,1.869,1.869,0,0,1,1.28.44,1.472,1.472,0,0,1,.5,1.16,1.729,1.729,0,0,1-.06.52,4.167,4.167,0,0,1-.3.88,14.614,14.614,0,0,0-.981,3.56,3.175,3.175,0,0,0,.1.88,1.171,1.171,0,0,0,1.26.86,1.54,1.54,0,0,0,.96-.32q1.239-.821,2.059-3.78a3.442,3.442,0,0,0,.16-.92,2.085,2.085,0,0,0-.779-1.58.72.72,0,0,1-.261-.54,1.271,1.271,0,0,1,1.2-1.2.815.815,0,0,1,.74.45,2.107,2.107,0,0,1,.26,1.07,10.885,10.885,0,0,1-.4,2.3,12.608,12.608,0,0,1-.96,2.68Q270.6,145.992,268.7,145.992Z"/><path class="f" d="M279.435,152.432q-.2-.035-1.854-.035-1.634,0-1.831.035h-.14V151.9h.3a6.642,6.642,0,0,0,.875-.035.747.747,0,0,0,.279-.14v-6.028a.256.256,0,0,0-.092.035,3.429,3.429,0,0,1-1.2.221h-.221v-.536h.221a3.245,3.245,0,0,0,1.632-.443,1.635,1.635,0,0,0,.363-.268c.014-.024.061-.035.139-.035a.292.292,0,0,1,.2.07v3.486l.012,3.5a1.125,1.125,0,0,0,.758.175h.687v.536Z"/><path class="f" d="M268.7,175.784a2.991,2.991,0,0,1-2.03-.65,2.388,2.388,0,0,1-.75-1.909,5.448,5.448,0,0,1,.04-.681,18.978,18.978,0,0,1,.939-2.939l.321-.96a2.156,2.156,0,0,0,.12-.681q0-.5-.38-.5a1.028,1.028,0,0,0-.32.061q-1.02.36-1.54,2.3a.236.236,0,0,1-.02.071.241.241,0,0,1-.03.059l-.031.031a.1.1,0,0,1-.069.019h-.53q-.12-.12-.12-.18a1.8,1.8,0,0,1,.06-.3,4.571,4.571,0,0,1,1.48-2.361,1.964,1.964,0,0,1,1.24-.42,1.865,1.865,0,0,1,1.28.441,1.469,1.469,0,0,1,.5,1.159,1.725,1.725,0,0,1-.06.52,4.167,4.167,0,0,1-.3.88,14.618,14.618,0,0,0-.981,3.561,3.185,3.185,0,0,0,.1.88,1.171,1.171,0,0,0,1.26.859,1.545,1.545,0,0,0,.96-.319q1.239-.821,2.059-3.78a3.442,3.442,0,0,0,.16-.92,2.082,2.082,0,0,0-.779-1.58.722.722,0,0,1-.261-.54,1.271,1.271,0,0,1,1.2-1.2.815.815,0,0,1,.74.451,2.1,2.1,0,0,1,.26,1.07,10.9,10.9,0,0,1-.4,2.3,12.6,12.6,0,0,1-.96,2.679Q270.6,175.784,268.7,175.784Z"/><path class="f" d="M275.866,177.223a.648.648,0,0,1-.512-.21.747.747,0,0,1-.187-.514,1.91,1.91,0,0,1,.636-1.439,2.133,2.133,0,0,1,1.521-.6,2.529,2.529,0,0,1,1.661.542,2.275,2.275,0,0,1,.811,1.417,3.392,3.392,0,0,1,.023.385,2.2,2.2,0,0,1-.408,1.27,7.736,7.736,0,0,1-1.317,1.341q-.421.362-1.166,1.074l-.689.652.887.012a14.008,14.008,0,0,0,1.947-.058c.031-.008.07-.09.116-.245a7.14,7.14,0,0,0,.164-.793v-.035h.466v.035l-.326,2.134v.035h-4.326V182a.8.8,0,0,1,.023-.268q.012-.012.98-1.108,1.27-1.41,1.632-1.865a3.382,3.382,0,0,0,.781-1.947,2.04,2.04,0,0,0-.4-1.289,1.342,1.342,0,0,0-1.125-.519,1.278,1.278,0,0,0-1.1.606c-.016.032-.039.075-.07.128a.25.25,0,0,0-.036.071c0,.008.02.011.059.011a.6.6,0,0,1,.473.21.729.729,0,0,1,.18.49.7.7,0,0,1-.192.5A.667.667,0,0,1,275.866,177.223Z"/><path class="f" d="M19.88,93.38a.776.776,0,0,1,.48.15.505.505,0,0,1,.2.43,25.035,25.035,0,0,1-.591,2.56q-.589,2.3-.63,2.64a4.308,4.308,0,0,0-.04.7,2.6,2.6,0,0,0,.11.87,1.145,1.145,0,0,0,.41.51,1.447,1.447,0,0,0,.821.24q1.419,0,2.259-2.44a11.055,11.055,0,0,0,.62-2.2,1.577,1.577,0,0,0,.021-.3,1.978,1.978,0,0,0-.721-1.6.8.8,0,0,1-.32-.64,1.074,1.074,0,0,1,.38-.81,1.215,1.215,0,0,1,.84-.35.33.33,0,0,1,.06.01.365.365,0,0,0,.08.01q.84.221.84,1.48a12.31,12.31,0,0,1-.38,2.3,24.734,24.734,0,0,1-.759,2.46q-.981,2.479-2.641,2.8a2.609,2.609,0,0,1-.379.02,3.789,3.789,0,0,1-1.581-.31,1.907,1.907,0,0,1-.96-.87,3.791,3.791,0,0,1-.89.88,2.07,2.07,0,0,1-1.17.3,3.372,3.372,0,0,1-2.149-.64,2.272,2.272,0,0,1-.811-1.9,4.151,4.151,0,0,1,.04-.72,17.91,17.91,0,0,1,.9-2.9,5.74,5.74,0,0,0,.44-1.64,1.066,1.066,0,0,0-.049-.39.227.227,0,0,0-.23-.11h-.1a1.239,1.239,0,0,0-.879.42,4.171,4.171,0,0,0-.98,1.92.267.267,0,0,1-.02.07.245.245,0,0,1-.031.06l-.029.03a.1.1,0,0,1-.071.02h-.53q-.12-.12-.12-.18a1.5,1.5,0,0,1,.06-.28,7.816,7.816,0,0,1,.38-.96,3.071,3.071,0,0,1,1.9-1.8,1.756,1.756,0,0,1,.461-.04,1.776,1.776,0,0,1,1.3.47,1.6,1.6,0,0,1,.48,1.19,4.459,4.459,0,0,1-.359,1.34,14.753,14.753,0,0,0-.96,3.34v.26a1.88,1.88,0,0,0,.379,1.25,1.361,1.361,0,0,0,1.1.45q.858,0,1.52-1.22l.1-.18v-.46q.041-.579.06-.68,0-.019.28-1.2t.6-2.43a11.575,11.575,0,0,1,.4-1.39A.887.887,0,0,1,19.88,93.38Z"/><path class="f" d="M31.34,95.06a.435.435,0,0,1,.28-.4H44.36a.437.437,0,0,1,.3.4.453.453,0,0,1-.28.38l-6.36.02H31.66A.4.4,0,0,1,31.34,95.06Zm0,3.88a.4.4,0,0,1,.32-.4H44.38a1.1,1.1,0,0,0,.09.07.894.894,0,0,1,.1.08.322.322,0,0,1,.06.1.379.379,0,0,1,.03.15.437.437,0,0,1-.3.4H31.62A.435.435,0,0,1,31.34,98.94Z"/><path class="f" d="M56.16,126.98V67h6.16v1.46h-4.7v57.06h4.7v1.46Z"/><path class="f" d="M97.54,68.46V67h6.16v59.98H97.54v-1.46h4.7V68.46Z"/><path class="f" d="M79.723,77.484a.777.777,0,0,1,.479.15.507.507,0,0,1,.2.43,24.8,24.8,0,0,1-.59,2.56q-.59,2.3-.629,2.64a4.2,4.2,0,0,0-.04.7,2.608,2.608,0,0,0,.109.87,1.133,1.133,0,0,0,.41.51,1.446,1.446,0,0,0,.82.24q1.421,0,2.26-2.44a11.123,11.123,0,0,0,.62-2.2,1.678,1.678,0,0,0,.02-.3,1.975,1.975,0,0,0-.72-1.6.8.8,0,0,1-.32-.64,1.073,1.073,0,0,1,.381-.81,1.211,1.211,0,0,1,.839-.35.317.317,0,0,1,.06.01.313.313,0,0,0,.08.01q.84.221.84,1.48a12.385,12.385,0,0,1-.38,2.3,24.356,24.356,0,0,1-.76,2.46q-.98,2.479-2.64,2.8a2.6,2.6,0,0,1-.38.02,3.769,3.769,0,0,1-1.58-.31,1.9,1.9,0,0,1-.96-.87,3.791,3.791,0,0,1-.89.88,2.073,2.073,0,0,1-1.17.3,3.369,3.369,0,0,1-2.15-.64,2.274,2.274,0,0,1-.81-1.9,4.049,4.049,0,0,1,.04-.72,17.805,17.805,0,0,1,.9-2.9,5.706,5.706,0,0,0,.44-1.64,1.04,1.04,0,0,0-.05-.39c-.033-.073-.11-.11-.23-.11h-.1a1.246,1.246,0,0,0-.88.42,4.2,4.2,0,0,0-.98,1.92.232.232,0,0,1-.02.07.191.191,0,0,1-.03.06l-.03.03a.093.093,0,0,1-.07.02h-.53q-.12-.12-.12-.18a1.535,1.535,0,0,1,.061-.28,7.222,7.222,0,0,1,.38-.96,3.07,3.07,0,0,1,1.9-1.8,1.747,1.747,0,0,1,.46-.04,1.779,1.779,0,0,1,1.3.47,1.6,1.6,0,0,1,.48,1.19,4.438,4.438,0,0,1-.36,1.34,14.891,14.891,0,0,0-.96,3.34v.26a1.88,1.88,0,0,0,.38,1.25,1.36,1.36,0,0,0,1.1.45q.861,0,1.52-1.22l.1-.18v-.46c.027-.386.046-.613.06-.68q0-.019.28-1.2t.6-2.43a11.908,11.908,0,0,1,.4-1.39A.888.888,0,0,1,79.723,77.484Z"/><path class="f" d="M90.912,92.764q-.2-.034-1.853-.035-1.633,0-1.831.035h-.14v-.536h.3a6.462,6.462,0,0,0,.875-.035.754.754,0,0,0,.279-.14V86.025a.258.258,0,0,0-.093.035,3.423,3.423,0,0,1-1.2.221h-.222v-.536h.222a3.251,3.251,0,0,0,1.632-.443,1.628,1.628,0,0,0,.362-.268c.015-.024.062-.035.14-.035a.294.294,0,0,1,.2.07v3.486l.012,3.5a1.125,1.125,0,0,0,.758.175h.687v.536Z"/><path class="f" d="M79.723,107.276a.777.777,0,0,1,.479.15.507.507,0,0,1,.2.43,24.8,24.8,0,0,1-.59,2.56q-.59,2.3-.629,2.64a4.2,4.2,0,0,0-.04.7,2.608,2.608,0,0,0,.109.87,1.133,1.133,0,0,0,.41.51,1.446,1.446,0,0,0,.82.24q1.421,0,2.26-2.44a11.123,11.123,0,0,0,.62-2.2,1.678,1.678,0,0,0,.02-.3,1.975,1.975,0,0,0-.72-1.6.8.8,0,0,1-.32-.64,1.073,1.073,0,0,1,.381-.81,1.211,1.211,0,0,1,.839-.35.317.317,0,0,1,.06.01.313.313,0,0,0,.08.01q.84.221.84,1.48a12.385,12.385,0,0,1-.38,2.3,24.356,24.356,0,0,1-.76,2.46q-.98,2.479-2.64,2.8a2.6,2.6,0,0,1-.38.02,3.769,3.769,0,0,1-1.58-.31,1.9,1.9,0,0,1-.96-.87,3.791,3.791,0,0,1-.89.88,2.073,2.073,0,0,1-1.17.3,3.369,3.369,0,0,1-2.15-.64,2.274,2.274,0,0,1-.81-1.9,4.049,4.049,0,0,1,.04-.72,17.805,17.805,0,0,1,.9-2.9,5.706,5.706,0,0,0,.44-1.64,1.04,1.04,0,0,0-.05-.39c-.033-.073-.11-.11-.23-.11h-.1a1.246,1.246,0,0,0-.88.42,4.2,4.2,0,0,0-.98,1.92.232.232,0,0,1-.02.07.2.2,0,0,1-.03.06l-.03.03a.093.093,0,0,1-.07.02h-.53q-.12-.12-.12-.18a1.535,1.535,0,0,1,.061-.28,7.222,7.222,0,0,1,.38-.96,3.07,3.07,0,0,1,1.9-1.8,1.747,1.747,0,0,1,.46-.04,1.779,1.779,0,0,1,1.3.47,1.6,1.6,0,0,1,.48,1.19,4.438,4.438,0,0,1-.36,1.34,14.891,14.891,0,0,0-.96,3.34v.26a1.88,1.88,0,0,0,.38,1.25,1.36,1.36,0,0,0,1.1.45q.861,0,1.52-1.22l.1-.18v-.46c.027-.386.046-.613.06-.68q0-.02.28-1.2t.6-2.43a11.908,11.908,0,0,1,.4-1.39A.888.888,0,0,1,79.723,107.276Z"/><path class="f" d="M87.344,117.554a.65.65,0,0,1-.513-.21.746.746,0,0,1-.186-.513,1.912,1.912,0,0,1,.635-1.44,2.138,2.138,0,0,1,1.522-.6,2.526,2.526,0,0,1,1.661.542,2.274,2.274,0,0,1,.81,1.417,3.39,3.39,0,0,1,.024.384,2.2,2.2,0,0,1-.408,1.271,7.751,7.751,0,0,1-1.318,1.341q-.42.363-1.166,1.073l-.688.653.887.012a14.019,14.019,0,0,0,1.947-.058c.031-.008.069-.09.116-.246a7.135,7.135,0,0,0,.163-.793v-.034H91.3v.034l-.326,2.134v.035H86.645v-.221a.772.772,0,0,1,.023-.268q.012-.012.979-1.108,1.27-1.412,1.632-1.866a3.372,3.372,0,0,0,.782-1.947,2.034,2.034,0,0,0-.4-1.288,1.339,1.339,0,0,0-1.125-.519,1.281,1.281,0,0,0-1.1.606c-.015.031-.039.074-.07.128a.3.3,0,0,0-.035.07c0,.008.02.012.059.012a.594.594,0,0,1,.472.21.73.73,0,0,1,.181.49.7.7,0,0,1-.192.495A.667.667,0,0,1,87.344,117.554Z"/></svg>